<svg xmlns="http://www.w3.org/2000/svg" width="17" height="24" viewBox="0 0 17 24">
  <metadata><?xpacket begin="﻿" id="W5M0MpCehiHzreSzNTczkc9d"?>
<x:xmpmeta xmlns:x="adobe:ns:meta/" x:xmptk="Adobe XMP Core 5.6-c142 79.160924, 2017/07/13-01:06:39        ">
   <rdf:RDF xmlns:rdf="http://www.w3.org/1999/02/22-rdf-syntax-ns#">
      <rdf:Description rdf:about=""/>
   </rdf:RDF>
</x:xmpmeta>
                                                                                                    
                                                                                                    
                                                                                                    
                                                                                                    
                                                                                                    
                                                                                                    
                                                                                                    
                                                                                                    
                                                                                                    
                                                                                                    
                                                                                                    
                                                                                                    
                                                                                                    
                                                                                                    
                                                                                                    
                                                                                                    
                                                                                                    
                                                                                                    
                                                                                                    
                                                                                                    
                           
<?xpacket end="w"?></metadata>
<defs>
    <style>
      .cls-1 {
        fill: #fff;
        fill-rule: evenodd;
      }
    </style>
  </defs>
  <path class="cls-1" d="M20.073,11.309l-0.733-.74L15.421,6.613l1.149-1.16a3.212,3.212,0,0,0,0-4.513A3.141,3.141,0,0,0,12.1.94L5.211,7.923a3.212,3.212,0,0,0-.284,4.768l4.653,4.7-1.15,1.16a3.213,3.213,0,0,0,0,4.514,3.14,3.14,0,0,0,2.233.935h0A3.144,3.144,0,0,0,12.9,23.06h0l7.171-7.238A3.213,3.213,0,0,0,20.073,11.309ZM13.186,2.035a1.615,1.615,0,0,1,2.3,0,1.651,1.651,0,0,1,0,2.32l-0.454.459-4.8,4.843A3.187,3.187,0,0,0,9.4,8.178a3.142,3.142,0,0,0-1.447-.834ZM11.815,21.963a1.614,1.614,0,0,1-2.3,0,1.651,1.651,0,0,1,0-2.32l1.149-1.16,0.416,0.42,0.734,0.74A1.651,1.651,0,0,1,11.815,21.963Zm7.172-7.237-5.256,5.3a3.185,3.185,0,0,0-.829-1.484l-0.733-.74L6.013,11.594a1.651,1.651,0,0,1,0-2.32,1.614,1.614,0,0,1,2.3,0,1.651,1.651,0,0,1,0,2.32l1.087,1.1L14.334,7.71l3.919,3.955,0.733,0.74A1.652,1.652,0,0,1,18.987,14.726ZM13.969,9.079l-4.1,4.138,1.087,1.1,4.1-4.137Zm1.64,1.655-4.1,4.138,1.086,1.1,4.1-4.138Zm-2.46,5.793,1.087,1.1,4.1-4.137-1.087-1.1Z" transform="translate(-4)"/>
</svg>
