<svg xmlns="http://www.w3.org/2000/svg" width="22" height="23" viewBox="0 0 22 23">
  <metadata><?xpacket begin="﻿" id="W5M0MpCehiHzreSzNTczkc9d"?>
<x:xmpmeta xmlns:x="adobe:ns:meta/" x:xmptk="Adobe XMP Core 5.6-c142 79.160924, 2017/07/13-01:06:39        ">
   <rdf:RDF xmlns:rdf="http://www.w3.org/1999/02/22-rdf-syntax-ns#">
      <rdf:Description rdf:about=""/>
   </rdf:RDF>
</x:xmpmeta>
                                                                                                    
                                                                                                    
                                                                                                    
                                                                                                    
                                                                                                    
                                                                                                    
                                                                                                    
                                                                                                    
                                                                                                    
                                                                                                    
                                                                                                    
                                                                                                    
                                                                                                    
                                                                                                    
                                                                                                    
                                                                                                    
                                                                                                    
                                                                                                    
                                                                                                    
                                                                                                    
                           
<?xpacket end="w"?></metadata>
<defs>
    <style>
      .cls-1 {
        fill: #fff;
        fill-rule: evenodd;
      }
    </style>
  </defs>
  <path class="cls-1" d="M22.613,13H17V10a3.972,3.972,0,0,0,0-1h5a0.973,0.973,0,0,1,.978,1.095C23,10.2,23,13,23,13H22.613Zm-8.1,12H9.49C9.064,25,9,24.441,9,24V6h6V24C15,24.441,14.934,25,14.508,25ZM15,5H9l0.1-.4L9,5V2c0-.442.064-1,0.49-1h5.018C14.934,1,15,1.558,15,2V5h0ZM6.788,25H1.77A0.787,0.787,0,0,1,1,24.2V10H7V24C7,24.441,7.215,25,6.788,25ZM7,9H1V5.8A0.787,0.787,0,0,1,1.77,5H6.788C7.215,5,7,5.558,7,6V9H7Zm11,5h3l0.455-.2H23V24.2a0.787,0.787,0,0,1-.773.8H17.21a0.786,0.786,0,0,1-.772-0.8V13.8H17.6Z" transform="translate(-1 -1)"/>
</svg>
