<svg xmlns="http://www.w3.org/2000/svg" width="23.531" height="18" viewBox="0 0 23.531 18">
  <metadata><?xpacket begin="﻿" id="W5M0MpCehiHzreSzNTczkc9d"?>
<x:xmpmeta xmlns:x="adobe:ns:meta/" x:xmptk="Adobe XMP Core 5.6-c142 79.160924, 2017/07/13-01:06:39        ">
   <rdf:RDF xmlns:rdf="http://www.w3.org/1999/02/22-rdf-syntax-ns#">
      <rdf:Description rdf:about=""/>
   </rdf:RDF>
</x:xmpmeta>
                                                                                                    
                                                                                                    
                                                                                                    
                                                                                                    
                                                                                                    
                                                                                                    
                                                                                                    
                                                                                                    
                                                                                                    
                                                                                                    
                                                                                                    
                                                                                                    
                                                                                                    
                                                                                                    
                                                                                                    
                                                                                                    
                                                                                                    
                                                                                                    
                                                                                                    
                                                                                                    
                           
<?xpacket end="w"?></metadata>
<defs>
    <style>
      .cls-1 {
        fill: #fff;
        fill-rule: evenodd;
      }
    </style>
  </defs>
  <path id="Shape_44_copy_2" data-name="Shape 44 copy 2" class="cls-1" d="M1.271,3.075a1.705,1.705,0,0,1,1.74,1.668,1.705,1.705,0,0,1-1.74,1.669A1.706,1.706,0,0,1-.47,4.743,1.705,1.705,0,0,1,1.271,3.075Zm4.426-.1H22.809a0.7,0.7,0,0,1,.717.687v1.9a0.7,0.7,0,0,1-.717.688H5.7A0.7,0.7,0,0,1,4.98,5.568v-1.9A0.7,0.7,0,0,1,5.7,2.979Zm0,7.28H22.809a0.7,0.7,0,0,1,.717.688v1.9a0.7,0.7,0,0,1-.717.687H5.7a0.7,0.7,0,0,1-.717-0.687v-1.9A0.7,0.7,0,0,1,5.7,10.26Zm0,7.281H22.809a0.7,0.7,0,0,1,.717.687v1.9a0.7,0.7,0,0,1-.717.687H5.7A0.7,0.7,0,0,1,4.98,20.13v-1.9A0.7,0.7,0,0,1,5.7,17.541ZM1.271,10.355a1.67,1.67,0,1,1,0,3.338A1.67,1.67,0,1,1,1.271,10.355Zm0,7.281a1.67,1.67,0,1,1,0,3.337A1.67,1.67,0,1,1,1.271,17.637Z" transform="translate(0 -2.969)"/>
</svg>
